<svg xmlns="http://www.w3.org/2000/svg" width="16.026" height="16.357" viewBox="0 0 16.026 16.357">
  <path id="Path_675" data-name="Path 675" d="M19.522,43.634a8.221,8.221,0,0,1,13.627-6.149c-.668.734-1.347,1.46-2.073,2.14a5.744,5.744,0,0,0-4.834-.945A5.165,5.165,0,1,0,29.72,48.4a4.519,4.519,0,0,0,2.655-3.1c-1.562-.031-3.124-.012-4.685-.055,0-.929-.008-1.855,0-2.784,2.6,0,5.212-.012,7.82.012a9.241,9.241,0,0,1-1.656,6.54,8.065,8.065,0,0,1-8.816,2.35A8.173,8.173,0,0,1,19.522,43.634Z" transform="translate(-19.517 -35.445)" fill="#fff" opacity="0.81"/>
</svg>
