<svg xmlns="http://www.w3.org/2000/svg" width="16.407" height="16.407" viewBox="0 0 16.407 16.407">
  <g id="instagram" opacity="0.81">
    <g id="Group_50" data-name="Group 50">
      <g id="Group_49" data-name="Group 49">
        <path id="Path_48" data-name="Path 48" d="M11.28,0H5.127A5.128,5.128,0,0,0,0,5.127V11.28a5.128,5.128,0,0,0,5.127,5.127H11.28a5.128,5.128,0,0,0,5.127-5.127V5.127A5.128,5.128,0,0,0,11.28,0Zm3.589,11.28a3.593,3.593,0,0,1-3.589,3.589H5.127A3.593,3.593,0,0,1,1.538,11.28V5.127A3.593,3.593,0,0,1,5.127,1.538H11.28a3.593,3.593,0,0,1,3.589,3.589Z" fill="#fff"/>
      </g>
    </g>
    <g id="Group_52" data-name="Group 52" transform="translate(4.102 4.102)">
      <g id="Group_51" data-name="Group 51">
        <path id="Path_49" data-name="Path 49" d="M132.1,128a4.1,4.1,0,1,0,4.1,4.1A4.1,4.1,0,0,0,132.1,128Zm0,6.665a2.564,2.564,0,1,1,2.564-2.564A2.567,2.567,0,0,1,132.1,134.665Z" transform="translate(-128 -128)" fill="#fff"/>
      </g>
    </g>
    <g id="Group_54" data-name="Group 54" transform="translate(12.066 3.248)">
      <g id="Group_53" data-name="Group 53">
        <ellipse id="Ellipse_6" data-name="Ellipse 6" cx="0.547" cy="0.547" rx="0.547" ry="0.547" fill="#fff"/>
      </g>
    </g>
  </g>
</svg>
