<svg xmlns="http://www.w3.org/2000/svg" width="13.531" height="17.392" viewBox="0 0 13.531 17.392">
  <g id="pinterest" opacity="0.81">
    <g id="Group_44" data-name="Group 44" transform="translate(0 0)">
      <path id="Path_39" data-name="Path 39" d="M36.9,37.207A4.736,4.736,0,0,1,34.562,36.1c-.456,2.394-1.014,4.69-2.666,5.889-.511-3.619.748-6.337,1.333-9.222-1-1.678.12-5.054,2.222-4.222,2.587,1.023-2.24,6.238,1,6.889,3.383.68,4.764-5.87,2.666-8-3.031-3.076-8.823-.07-8.111,4.333.174,1.076,1.286,1.4.444,2.889-1.94-.43-2.519-1.96-2.444-4a6.528,6.528,0,0,1,5.889-6c3.654-.409,7.083,1.342,7.556,4.778.532,3.879-1.649,8.079-5.556,7.778Z" transform="translate(-29 -24.593)" fill="#fff"/>
    </g>
  </g>
</svg>
