<svg xmlns="http://www.w3.org/2000/svg" width="16.54" height="13.441" viewBox="0 0 16.54 13.441">
  <g id="twitter" opacity="0.81">
    <g id="Group_48" data-name="Group 48" transform="translate(0 0)">
      <path id="Path_47" data-name="Path 47" d="M41.643,35.619a6.77,6.77,0,0,1-1.949.534,3.4,3.4,0,0,0,1.492-1.877,6.793,6.793,0,0,1-2.155.823,3.4,3.4,0,0,0-5.783,3.1,9.633,9.633,0,0,1-6.994-3.546,3.4,3.4,0,0,0,1.05,4.531,3.369,3.369,0,0,1-1.537-.425c0,.014,0,.029,0,.043a3.4,3.4,0,0,0,2.722,3.327,3.407,3.407,0,0,1-1.532.059,3.4,3.4,0,0,0,3.17,2.357A6.85,6.85,0,0,1,25.1,45.945a9.65,9.65,0,0,0,14.856-8.13c0-.147,0-.294-.01-.439a6.881,6.881,0,0,0,1.694-1.756Z" transform="translate(-25.103 -34.028)" fill="#fff"/>
    </g>
  </g>
</svg>
