<svg xmlns="http://www.w3.org/2000/svg" id="left-arrow" width="27.201" height="27.201" viewBox="0 0 27.201 27.201">
    <defs>
        <style>
            .cls-1{fill:#9e7b5f}
        </style>
    </defs>
    <g id="Group_1" data-name="Group 1">
        <path id="Path_7" d="M1.824 6.774a13.544 13.544 0 0 1 4.95-4.95A13.3 13.3 0 0 1 13.6 0a13.3 13.3 0 0 1 6.827 1.824 13.54 13.54 0 0 1 4.95 4.95A13.3 13.3 0 0 1 27.2 13.6a13.306 13.306 0 0 1-1.824 6.827 13.544 13.544 0 0 1-4.95 4.95A13.305 13.305 0 0 1 13.6 27.2a13.305 13.305 0 0 1-6.827-1.824 13.54 13.54 0 0 1-4.95-4.95A13.306 13.306 0 0 1 0 13.6a13.307 13.307 0 0 1 1.824-6.826zm3.435 11.661a9.6 9.6 0 0 0 3.506 3.507 9.416 9.416 0 0 0 4.835 1.292 9.417 9.417 0 0 0 4.835-1.292 9.6 9.6 0 0 0 3.506-3.507 9.415 9.415 0 0 0 1.293-4.835 9.417 9.417 0 0 0-1.293-4.835 9.6 9.6 0 0 0-3.506-3.505A9.416 9.416 0 0 0 13.6 3.967 9.416 9.416 0 0 0 8.766 5.26a9.6 9.6 0 0 0-3.507 3.506A9.416 9.416 0 0 0 3.967 13.6a9.416 9.416 0 0 0 1.292 4.835z" class="cls-1" data-name="Path 7"/>
        <path id="Path_8" d="M110.2 122.742h6.234v-3.4a.574.574 0 0 1 .567-.567.551.551 0 0 1 .407.159l5.667 5.667a.6.6 0 0 1 0 .815l-5.649 5.649a.665.665 0 0 1-.425.177.545.545 0 0 1-.567-.566v-3.4H110.2a.574.574 0 0 1-.566-.566v-3.4a.574.574 0 0 1 .567-.566z" class="cls-1" data-name="Path 8" transform="translate(-102.836 -111.408)"/>
    </g>
</svg>
