<svg xmlns="http://www.w3.org/2000/svg" width="70.244" height="70.244" viewBox="0 0 70.244 70.244">
    <defs>
        <style>
            .cls-1{opacity:.4}.cls-2{fill:#fff}
        </style>
    </defs>
    <g id="renault-2" class="cls-1">
        <path id="Path_7693" d="M0 0h70.244v70.244H0z" class="cls-2" data-name="Path 7693"/>
        <path id="Path_7694" d="M63.243 148.451v-.686H9.942v.686zm-55.23-13.406H2.834v.814h.654a.569.569 0 0 1 .43.436v1.969H7.1v-2.406h.916zm15.34 10.716v-3.224h-1.717v1.38c0 .475-.225 1.031-.635 1.031h-1.87a.518.518 0 0 1-.42-.4v-3.608a.294.294 0 0 1 .3-.3h.53a.568.568 0 0 1 .426.439v.685h1.583v-3.235H20v.67a.635.635 0 0 1-.45.469h-.544a.351.351 0 0 1-.3-.361v-3.091c0-.169.251-.352.42-.352h1.82a.462.462 0 0 1 .443.451v1.48h1.6v-2.746h-8.545v.814h.656a.568.568 0 0 1 .43.436v8.273a.491.491 0 0 1-.42.378h-.654v.813h8.9zm3.179-6.607l3.548 6.607h3.131v-9.5a.521.521 0 0 1 .42-.406h.654v-.814h-3.512v.814h.657a.52.52 0 0 1 .42.4v5.578l-3.811-6.8h-3.952v.814h.654a.554.554 0 0 1 .43.423v8.273a.5.5 0 0 1-.42.391H24.1v.813h3.51v-.813h-.657a.5.5 0 0 1-.42-.388v-5.4zm10.215-.23L35 144.594c-.065.175-.167.354-.336.354h-.681v.813h3.271l-.007-.813H36.6a.309.309 0 0 1-.3-.352l.693-2.526a.142.142 0 0 1 .127-.124h1.329v-.986h-.957c-.068 0-.149-.067-.128-.134l.538-1.9h-1.155z" data-name="Path 7694" transform="translate(-1.801 -85.832)"/>
        <path id="Path_7695" d="M96.933 141.945h1.231a.158.158 0 0 1 .142.125L99 144.6a.309.309 0 0 1-.3.352h-.654l-.007.813h5.361v-.813h-.681c-.169 0-.271-.179-.336-.354l-2.809-9.549h-4.72v.814h.535a.541.541 0 0 1 .584.711l-.739 2.352h1.151l.521-1.8 1.058 3.7c.022.068-.074.135-.142.135h-.89v.986zm14.526 1.321V136.3a.571.571 0 0 1 .428-.44h.651v-.814h-3.261v.814h.654a.578.578 0 0 1 .428.446v7c-.021 1.92-3.473 2.121-3.495-.078v-6.933a.56.56 0 0 1 .428-.431h.651v-.814h-5.337v.814h.655a.566.566 0 0 1 .428.437v7c0 3.451 7.77 3.634 7.77-.033zm6.1-6.979a.56.56 0 0 1 .433-.427h.656v-.814H113.3v.814h.655a.554.554 0 0 1 .43.423v8.273a.5.5 0 0 1-.419.391h-.532v.813h8.3v-3.237h-1.719v1.38c0 .475-.224 1.043-.634 1.043h-1.394a.531.531 0 0 1-.42-.416v-8.243z" data-name="Path 7695" transform="translate(-60.288 -85.832)"/>
        <path id="Path_7696" d="M66.593 103.867h2.672v-.813h-.654a.532.532 0 0 1-.428-.407v-8.5a.179.179 0 0 1 .181-.18c.779.03 1.114.283 1.114 1.347v.993h1.553v-3.156h-8.876v3.156h1.554v-.993c0-1.064.335-1.317 1.113-1.347a.18.18 0 0 1 .182.18v8.5a.531.531 0 0 1-.428.407h-.654v.813zm-59.142-5.2a.533.533 0 0 1 .385.269l.011.01 2.165 4.916h3.711v-.813h-.261c-.223 0-.335-.281-.47-.514l-2.252-3.963c1.374 0 2.063-1.082 2.08-2.524-.016-1.456-.665-2.9-2.361-2.9H8.033v.814h.292c1.493 0 1.515 3.884 0 3.884H7.117V96.37H3.938v6.308a.486.486 0 0 1-.419.374h-.654v.813H8.2v-.813h-.662a.5.5 0 0 1-.42-.389V98.67h.33zm29.71-19.314l-3.261 5.66c-.106.182-.38.027-.31-.162l2.718-6.24-5.413-9.376h-7.418a1.007 1.007 0 0 0 .09.262l9.521 16.493a.42.42 0 0 0 .317.208h7.055a.376.376 0 0 0 .295-.157l9.532-16.522a3.715 3.715 0 0 0 .176-.39H43.07l-6.123 10.6z" data-name="Path 7696" transform="translate(-1.821 -43.938)"/>
        <path id="Path_7697" d="M77.509 38.531h8.381a.239.239 0 0 0 .241-.228 1.208 1.208 0 0 0-.141-.629l-9.542-16.506a.528.528 0 0 0-.5-.246h-7a.624.624 0 0 0-.524.244l-.011.017-9.489 16.492a1.777 1.777 0 0 0-.2.71.241.241 0 0 0 .224.256h8.458l4.836 8.333a.241.241 0 0 0 .416 0l4.833-8.411a.19.19 0 0 0 .018-.032zm-.447-.183l-4.612 8.025-4.639-7.994 4.639-8.035zm-9.679-.188h-8.135a1.237 1.237 0 0 1 .1-.25l9.479-16.47.053-.03a.176.176 0 0 1 .067-.007h7.05a.046.046 0 0 1 .043.017l9.528 16.49a.657.657 0 0 1 .055.139h-8.179l-4.785-8.308a.241.241 0 0 0-.417 0z" data-name="Path 7697" transform="translate(-37.324 -13.298)"/>
        <path id="Path_7698" d="M66.4 40.509h1.289l4.838-8.328 4.754 8.262h1.305l-5.434-9.411 2.75-6.248c.073-.168-.22-.3-.317-.138zm2.087 17.246a.636.636 0 0 0 .5.327h7.092a.62.62 0 0 0 .49-.266l9.55-16.554a2.639 2.639 0 0 0 .073-.514l-.479-.042-.026.287-.011.073-9.513 16.487a.133.133 0 0 1-.1.049h-7.037a.175.175 0 0 1-.124-.086l-9.514-16.481a1.366 1.366 0 0 1-.068-.185.241.241 0 1 0-.478.058.751.751 0 0 0 .04.165l.073.175z" data-name="Path 7698" transform="translate(-37.398 -15.616)"/>
    </g>
</svg>
